<?xml version="1.0" standalone="no"?>
<!DOCTYPE svg PUBLIC "-//W3C//DTD SVG 20010904//EN"
 "http://www.w3.org/TR/2001/REC-SVG-20010904/DTD/svg10.dtd">
<svg version="1.0" xmlns="http://www.w3.org/2000/svg"
 width="480.000000pt" height="480.000000pt" viewBox="0 0 480.000000 480.000000"
 preserveAspectRatio="xMidYMid meet">
<metadata>
Created by potrace 1.14, written by Peter Selinger 2001-2017
</metadata>
<g transform="translate(0.000000,480.000000) scale(0.100000,-0.100000)"
fill="#000000" stroke="none">
<path d="M2164 3191 c-27 -7 -50 -17 -52 -22 -2 -5 -9 -9 -15 -9 -14 -1 -66
-47 -85 -76 -40 -60 -53 -120 -52 -229 1 -38 1 -81 0 -95 -1 -14 -2 -29 -2
-35 1 -5 1 -39 1 -75 0 -66 1 -90 2 -112 0 -7 -1 -60 -1 -117 -2 -96 -4 -106
-24 -116 -11 -6 -61 -33 -109 -58 -48 -26 -98 -53 -110 -59 -12 -6 -29 -15
-37 -20 -8 -4 -26 -14 -40 -20 -14 -7 -27 -15 -30 -18 -3 -3 -35 -21 -72 -40
-38 -19 -68 -38 -68 -42 0 -6 51 -10 135 -8 94 1 151 1 155 -1 3 -1 10 0 15 1
9 2 145 3 202 1 13 -1 23 -4 22 -8 -5 -34 33 -71 67 -65 6 1 17 -9 24 -23 7
-14 15 -23 18 -20 9 9 32 -25 39 -57 3 -18 10 -37 15 -43 43 -54 42 -53 76
-44 17 5 32 16 32 23 0 8 6 17 13 19 9 4 9 6 0 6 -7 1 -26 14 -43 31 -17 16
-35 30 -40 30 -6 0 -10 5 -10 10 0 6 8 10 18 10 10 0 33 16 52 35 19 19 42 35
51 35 19 0 33 -24 31 -55 -1 -16 0 -17 4 -2 3 9 10 17 15 17 6 0 9 -8 8 -17
-1 -10 0 -20 1 -23 5 -14 6 -50 1 -50 -14 0 2 -79 17 -85 24 -9 32 14 29 86
-4 73 5 117 18 87 4 -10 5 -25 1 -33 -3 -8 -1 -15 4 -15 5 0 7 -10 4 -22 -3
-13 -7 -76 -9 -140 -4 -106 -2 -119 15 -128 12 -7 21 -6 27 3 17 21 22 46 12
53 -6 4 -6 11 2 20 6 8 8 14 3 14 -10 0 -9 36 1 140 4 36 6 73 6 82 0 24 29
31 45 11 13 -17 14 -17 8 0 -10 27 11 20 24 -8 15 -34 15 -38 -2 -32 -10 4
-13 1 -9 -9 3 -9 -1 -14 -13 -14 -14 0 -15 -3 -6 -12 9 -9 18 -6 41 16 26 25
29 26 36 9 5 -10 8 -21 7 -25 -2 -8 40 -4 55 5 7 4 26 5 42 2 23 -4 35 0 48
15 16 18 18 18 35 3 17 -15 18 -15 17 8 0 13 -3 18 -6 11 -4 -10 -8 -10 -19
-1 -12 10 -11 14 8 23 27 14 33 64 9 83 -14 11 -14 12 -1 13 9 0 5 6 -10 15
l-25 14 25 0 c36 -2 105 9 137 22 37 14 112 71 113 85 0 7 7 14 15 18 8 3 14
9 13 13 -1 4 4 19 11 31 7 13 15 36 18 50 9 48 8 712 -1 712 -5 0 -7 3 -4 6
14 13 -27 97 -67 138 -47 49 -85 72 -136 82 -19 4 -183 7 -365 8 -252 1 -343
-2 -380 -13z m376 -337 l235 -236 3 237 2 237 58 -4 57 -3 1 -452 1 -451 -33
-4 c-19 -2 -40 0 -48 4 -9 5 -17 4 -21 -2 -5 -8 -11 -7 -21 1 -11 9 -14 9 -14
-1 0 -9 -3 -10 -13 -1 -8 6 -16 9 -19 6 -5 -5 -99 -7 -178 -4 -19 0 -39 0 -45
-1 -5 -1 -28 -1 -50 -1 -22 0 -72 1 -112 2 -39 1 -76 -2 -81 -5 -6 -4 -13 -2
-17 4 -4 7 -12 7 -25 0 -13 -7 -21 -6 -27 2 -8 13 -14 886 -6 901 2 4 30 7 61
7 l57 0 235 -236z m290 -914 c0 -5 -4 -10 -10 -10 -5 0 -10 5 -10 10 0 6 5 10
10 10 6 0 10 -4 10 -10z"/>
<path d="M2845 1960 c3 -5 8 -10 11 -10 2 0 4 5 4 10 0 6 -5 10 -11 10 -5 0
-7 -4 -4 -10z"/>
<path d="M2075 1859 c-4 -6 -5 -12 -2 -15 7 -7 37 7 37 17 0 13 -27 11 -35 -2z"/>
<path d="M2695 1840 c3 -5 8 -10 11 -10 2 0 4 5 4 10 0 6 -5 10 -11 10 -5 0
-7 -4 -4 -10z"/>
</g>
</svg>
